<?xml version="1.0" encoding="utf-8"?>
<!-- Generator: Adobe Illustrator 20.1.0, SVG Export Plug-In . SVG Version: 6.00 Build 0)  -->
<svg version="1.1" id="Слой_1" xmlns="http://www.w3.org/2000/svg" xmlns:xlink="http://www.w3.org/1999/xlink" x="0px" y="0px"
	 viewBox="0 0 424.3 102.2" style="enable-background:new 0 0 424.3 102.2;" xml:space="preserve">
<style type="text/css">
	.st0{clip-path:url(#SVGID_2_);fill:#1A8DFF;}
	.st1{clip-path:url(#SVGID_4_);fill:url(#SVGID_5_);}
	.st2{clip-path:url(#SVGID_7_);fill:url(#SVGID_8_);}
</style>
<g>
	<defs>
		<rect id="SVGID_1_" y="0" width="424.3" height="102.2"/>
	</defs>
	<clipPath id="SVGID_2_">
		<use xlink:href="#SVGID_1_"  style="overflow:visible;"/>
	</clipPath>
	<path class="st0" d="M98.8,67.6h7.4c0.1,0.2,0.4,0.6,0.6,1c1,2.2,0,3.7-2.3,3.7c-5.4,0-10.9,0-16.3,0c-2.1,0-2.7-0.6-2.7-2.7
		c0-13.8,0-27.7,0.1-41.5c0-2.1,0-2.1-2.1-2.1c-0.7,0-1.2,0-1.7,0c-1.2,0-1.5-0.5-1.5-1.9c0-0.3,0-0.7,0-1c0-0.8,0.5-1.1,1.2-1.1
		c9.2,0,18.5-0.1,27.7,0.1c3.2,0.1,9.4,0.1,11.9,3.9c0.5,0.8,1,1.7,1.6,2.9c0,0,0.1-0.2,0.1-0.5c0.8-2.8,3.2-4.8,5.7-5.5
		c2.4-0.7,4.8-0.8,7.3-0.9c10.7-0.1,21.5-0.1,32.2-0.1c0.9,0,1.9-0.2,2.9-0.3c0.8,1,0.1,1.7-0.6,2.6c-7.5,8.9-12.6,19-13.9,30.7
		c-0.6,5-0.2,10,0.9,14.9c0.4,2,0.1,2.3-1.9,2.3c-2.7,0-5.4,0-8.2,0c-1.9,0-2.5-0.6-2.5-2.5c0-10.2,0-20.5,0-30.7
		c0-1.2-0.1-2.3-0.1-3.5c0-1.6-0.7-2.9-2-3.9c-3-2.4-6.5-2.3-9.8-1.1c-3,1.2-4.1,3.8-4.1,6.9c0,10.7,0,21.4,0,32.1
		c0,2.5-0.2,2.7-2.8,2.7c-2.7,0-5.4,0-8.2,0c-1.9,0-2.5-0.6-2.5-2.5c0-11.1,0-22.1,0-33.2c0-3.5-1.6-5.8-5.1-6.4
		c-2.1-0.3-4.4-0.2-6.5,0.2c-3,0.6-4.8,3.3-4.8,6.8c0,9.3,0,18.6,0,27.8C99,65.8,98.9,66.6,98.8,67.6"/>
	<path class="st0" d="M19.7,67.6h7.2c0.1,0.2,0.3,0.5,0.5,0.8c1.1,2.2,0.2,3.9-2.3,3.9c-5.3,0-10.7,0-16,0c-2.4,0-2.8-0.4-2.8-2.8
		c0-13.7,0-27.5,0.1-41.2C6.4,26,6.3,26,4.2,26c-1,0-1.9,0-2.9,0C0.1,25.8,0,25.2,0,24c0-2.3,1.4-2,2.9-2c8.1,0,16.2,0,24.3,0
		c4.3,0,8.4,0.6,12.2,2.7c0.7,0.4,1.5,0.5,2,1c0.7,0.8,1.2,1.9,1.8,2.9c-0.1,0.1,0.1,0,0.1-0.1c1.3-3.8,4.5-5.2,7.9-5.8
		c7.7-1.3,15.3-1.1,22.6,2.3c3.2,1.4,4.1,3.9,4.6,6.8c0.3,1.6,0.2,3.2,0.2,4.8c0,10.8,0,21.6,0,32.4c0,0.5,0,1,0,1.5
		c0,1.3-0.6,2-2,2c-3.1,0-5.8,0-8.9,0c-1.5,0-2.2-0.8-2.2-2.3c0-9.3,0-18.6,0-27.8c0-1.1,0-2.3-0.1-3.4c-0.1-1.6-0.3-3.2-0.8-4.7
		c-0.5-1.9-1.9-3.1-3.7-3.6c-3.4-1-6.8-1.2-9.7,1.5c-1.6,1.5-2.1,3.4-2.1,5.4c0,10.7,0,21.4,0,32.1c0,2.7-0.2,2.9-2.9,2.9
		c-2.7,0-5.3,0-8,0c-2,0-2.5-0.6-2.5-2.5c0-10.8-0.1-21.6,0.1-32.4c0.1-5.8-3.7-7.5-7.5-7.6c-2.4,0-4.8,0.3-6.6,2.1
		c-1.5,1.5-2.3,3.3-2.3,5.5c0,9.1,0,18.3,0,27.4C19.7,65.7,19.7,66.5,19.7,67.6"/>
	<path class="st0" d="M299.6,67.6h7.2c0.1,0.2,0.3,0.5,0.5,0.8c1.1,2.3,0.1,3.8-2.3,3.8c-8,0-15.9,0-23.9,0c-1.6,0-1.9-0.6-1.5-1.2
		c16-22.4,9.3-42.9,6.3-49.1c8.5,0,16.8-0.1,25.2,0.1c4.1,0.1,8.9,0.5,11.9,2.4c3.2,1.9,4.3,4.7,4.3,8.2c0,5.3-1.8,8.2-5.1,12.3
		c6.9,6.1,6.8,14.4,7.2,22.7h6.8c0.1,0.2,0.4,0.5,0.5,0.8c0.8,2.6,0.4,3.9-2.3,3.9c-5.2-0.1-10.4,0-15.6,0c-2.3,0-2.7-0.4-2.9-2.7
		c-0.5-5.4-1.9-10.6-4-15.6c-0.4-0.8-0.9-1.6-1.5-2.3c-0.7-0.9-1.6-1.1-2.8-0.8c-2,0.4-4,0.9-6,1.2c-1.2,0.2-1.6,0.8-1.6,2
		c0,3.7,0,7.5,0,11.2C299.8,66,299.7,66.7,299.6,67.6 M299.4,45.2c0.3,0,0.6,0,0.8,0c0.3,0,0.7-0.1,1-0.2c4.1-0.8,7.3-3.2,10-6.1
		c2.2-2.4,3.7-5.1,2.5-8.6c-0.5-1.3-1-2.2-2.4-2.4c-1.4-0.2-2.8-0.3-4.2-0.2c-4.4,0.2-7.3,3.2-7.4,7.6c0,2.6,0,5.1,0,7.7
		C299.7,43.7,299.6,44.4,299.4,45.2"/>
	<path class="st0" d="M411.1,65.9c0-4.1,0-8,0-11.9c0-1.4,0-2.7,0-4.1c0-1-0.4-1.4-1.4-1.4c-1.2,0-2.3,0-3.5,0
		c-1.7-0.1-2.3-1.4-1.7-3c0.5-1.2,1.2-1.4,2.4-1.4c4.9,0.1,9.7,0,14.6,0c0.2,0,0.4,0,0.6,0c0.9-0.1,1.8,0.6,2,1.5
		c0.1,0.5,0.2,0.9,0.2,1.4c0,9,0,18,0,27c0,1.4-0.1,2.7-0.2,4.1c-0.4,3.4-2.3,5.7-5.4,7c-3.3,1.4-6.8,1.9-10.4,2.1
		c-2.9,0.2-5.7,0.1-8.6,0.1c-1.5,0-2.2-0.7-2.2-2.2c0-2,1.7-3.6,3.7-3.6c2.6,0,5.2-0.1,7.4-1.7c2.4-1.8,3.3-4.3,2.4-7.1
		c-0.1-0.4-1-0.7-1.5-0.7c-3.6-0.1-7.3,0-10.9-0.3c-3.3-0.3-6.6-0.8-9.7-1.7c-5-1.4-7.2-5.2-7.3-10c-0.2-6.4-0.1-12.8,0.1-19.2
		c0.1-3.5,0.6-7,1-10.5c0.4-3.2,2.3-5.4,5.4-6.2c3.2-0.9,6.4-1.7,9.7-1.9c5.8-0.4,11.6-0.4,17.2,1.1c2,0.5,4.1,1.2,5.9,2.3
		c1.8,1.1,2.7,3,3.1,5.1c0.9,5,0.3,4.7-3.8,3.8c-2.6-0.6-5.2-1.1-7.8-1.7c-0.7-0.2-1.5-0.6-1.9-1.1c-2.6-3.5-6.3-4.7-10.4-3.3
		c-3.1,1.1-5.1,4.2-5.1,7.5c0.2,7.1,0.3,14.2,0.6,21.4c0.1,2.4,0.3,4.8,2.3,6.5c1.8,1.5,3.6,2.5,6.2,2.5c2.2,0,3.9,0,5.8,0
		C410.3,66,410.8,65.9,411.1,65.9"/>
	<path class="st0" d="M359.3,67.6c0.2,0.8,0.5,1.8,0.6,2.7c0.2,1.4-0.6,1.9-1.9,1.9c-3,0-5.9,0-8.9,0c-2.6,0-5.2,0-7.9,0
		c-1.9,0-2.4-0.6-2.4-2.5c0-13.9,0.1-27.8,0.1-41.7c0-2.1,0-2.1-2.1-2.1c-1,0-1.9,0-2.9,0c-1.3-0.1-1.4-0.7-1.3-2c0-2.2,1.3-2,2.8-2
		c9.1,0,18.3-0.1,27.4,0.1c4.4,0.1,8,0.1,12.1,1.8c1.5,0.6,3.2,1.9,4.1,3.2c1,1.4,1,2.9,1,4.5c-0.1,4.1-1.3,7.8-3.5,11.1
		c-0.9,1.3-2.2,2.5-3.5,3.4c-4.5,3.3-9.9,4.5-15.2,5.4c-1.1,0.2-2.2,0.4-3.3,0.6c-2.1,0.4-2.2,0.5-2.2,2.7c0,3.5,0,7.1,0,10.6
		c0,0.7-0.1,1.4-0.2,2.3H359.3z M351.8,45.2c0.6-0.1,1.2,0,1.8-0.2c2.2-0.9,4.5-1.7,6.6-2.9c2.5-1.4,4.6-3.4,5.8-6.1
		c0.9-1.8,1.1-3.6,0.4-5.7c-0.5-1.4-1.1-2.3-2.5-2.4c-1.5-0.2-3.1-0.3-4.6-0.2c-4.2,0.2-7.1,3.3-7.1,7.5c0,2.6,0,5.2,0,7.8
		C352.2,43.7,352,44.4,351.8,45.2"/>
</g>
<g>
	<defs>
		<path id="SVGID_3_" d="M158.9,60.1c2.1,40,41.8,42.1,41.8,42.1l5.1-11.8c0,0-27.8-10.8-26.2-40.1S205.2,12,205.2,12l-2.9-5.9
			C157.2,27.6,158.9,60.1,158.9,60.1"/>
	</defs>
	<clipPath id="SVGID_4_">
		<use xlink:href="#SVGID_3_"  style="overflow:visible;"/>
	</clipPath>
	
		<linearGradient id="SVGID_5_" gradientUnits="userSpaceOnUse" x1="0" y1="102.1709" x2="1" y2="102.1709" gradientTransform="matrix(41.5 90 90 -41.5 -9028.2148 4263.1841)">
		<stop  offset="0" style="stop-color:#DBDBDB"/>
		<stop  offset="1" style="stop-color:#727272"/>
	</linearGradient>
	<polygon class="st1" points="197.3,-12.4 242.4,85.4 165.7,120.7 120.6,23 	"/>
</g>
<g>
	<defs>
		<path id="SVGID_6_" d="M245.2,0L240,11.6c0,0,25.3,8.2,25.6,38.8c0.3,30.5-26.1,40.1-26.1,40.1l2.5,5.8
			c46.2-19.5,44.3-55.8,44.3-55.8C284.4,2.2,245.2,0,245.2,0z"/>
	</defs>
	<clipPath id="SVGID_7_">
		<use xlink:href="#SVGID_6_"  style="overflow:visible;"/>
	</clipPath>
	
		<linearGradient id="SVGID_8_" gradientUnits="userSpaceOnUse" x1="0" y1="102.2997" x2="1" y2="102.2997" gradientTransform="matrix(41.5 90 90 -41.5 -8969.6299 4236.1704)">
		<stop  offset="0" style="stop-color:#DBDBDB"/>
		<stop  offset="1" style="stop-color:#727272"/>
	</linearGradient>
	<polygon class="st2" points="279.6,-18.5 324.8,79.4 248,114.8 202.8,16.9 	"/>
</g>
</svg>
